<svg xmlns="http://www.w3.org/2000/svg" width="229" height="106.687" viewBox="0 0 229 106.687">
  <g id="SquareEyesLogo" transform="translate(-70 -18.313)">
    <g id="Rectangle_28" data-name="Rectangle 28" transform="translate(142 34)" fill="#f2efeb" stroke="#f2a516" stroke-width="10">
      <rect width="64" height="41" stroke="none"/>
      <rect x="5" y="5" width="54" height="31" fill="none"/>
    </g>
    <g id="Rectangle_29" data-name="Rectangle 29" transform="translate(70 34)" fill="#f2efeb" stroke="#f2a516" stroke-width="10">
      <rect width="64" height="41" stroke="none"/>
      <rect x="5" y="5" width="54" height="31" fill="none"/>
    </g>
    <text id="SQUARE" transform="translate(70 101)" fill="#0d0d0d" font-size="35" font-family="Roboto-Medium, Roboto" font-weight="500" letter-spacing="0.001em"><tspan x="0" y="0">SQUARE</tspan></text>
    <line id="Line_2" data-name="Line 2" x2="13.451" transform="translate(131.059 44.535)" fill="none" stroke="#f2a516" stroke-width="10"/>
    <line id="Line_3" data-name="Line 3" y1="15.703" x2="42.261" transform="translate(72.239 23)" fill="none" stroke="#f2a516" stroke-width="10"/>
    <line id="Line_4" data-name="Line 4" x1="42.26" y1="15.7" transform="translate(161.7 23)" fill="none" stroke="#f2a516" stroke-width="10"/>
    <text id="EYES" transform="translate(216 101)" fill="#a60311" font-size="35" font-family="Roboto-Medium, Roboto" font-weight="500" letter-spacing="0.001em"><tspan x="0" y="0">EYES</tspan></text>
    <text id="Connecting_Film-Lovers" data-name="Connecting Film-Lovers" transform="translate(71 120)" fill="rgba(13,13,13,0.68)" font-size="20" font-family="Roboto-Regular, Roboto" letter-spacing="0.001em"><tspan x="0" y="0">Connecting Film-Lovers</tspan></text>
    <g id="Path_67" data-name="Path 67" transform="translate(106.104 51.454) rotate(90)">
      <path d="M 6.205090522766113 5.517404079437256 L 0.8742133975028992 5.517404079437256 L 3.539651870727539 0.9861626029014587 L 6.205090522766113 5.517404079437256 Z" stroke="none"/>
      <path d="M 3.539651870727539 1.972303867340088 L 1.748414993286133 5.017404079437256 L 5.330888748168945 5.017404079437256 L 3.539651870727539 1.972303867340088 M 3.539651870727539 4.291534423828125e-06 L 7.079301834106445 6.017404079437256 L 1.9073486328125e-06 6.017404079437256 L 3.539651870727539 4.291534423828125e-06 Z" stroke="none" fill="#000"/>
    </g>
    <g id="Group_9" data-name="Group 9" transform="translate(91.592 44.021)">
      <path id="Path_66" data-name="Path 66" d="M12.454,1.93A10.812,10.812,0,0,0,1.642,12.548,10.812,10.812,0,0,0,12.454,23.167,10.482,10.482,0,0,0,22.879,12.548,10.545,10.545,0,0,0,19.79,5.076,10.167,10.167,0,0,0,12.454,1.93Zm0,19.665a9.19,9.19,0,0,1-8.881-9.046A8.846,8.846,0,0,1,12.454,3.9a8.516,8.516,0,0,1,8.5,8.652C20.923,17.363,17.181,21.568,12.454,21.594Z" transform="translate(-1.642 -1.929)"/>
    </g>
    <g id="Path_68" data-name="Path 68" transform="translate(177.605 51.454) rotate(90)">
      <path d="M 6.205090522766113 5.517404079437256 L 0.8742133975028992 5.517404079437256 L 3.539651870727539 0.9861626029014587 L 6.205090522766113 5.517404079437256 Z" stroke="none"/>
      <path d="M 3.539651870727539 1.972303867340088 L 1.748414993286133 5.017404079437256 L 5.330888748168945 5.017404079437256 L 3.539651870727539 1.972303867340088 M 3.539651870727539 4.291534423828125e-06 L 7.079301834106445 6.017404079437256 L 1.9073486328125e-06 6.017404079437256 L 3.539651870727539 4.291534423828125e-06 Z" stroke="none" fill="#000"/>
    </g>
    <g id="Group_10" data-name="Group 10" transform="translate(163.093 44.021)">
      <path id="Path_66-2" data-name="Path 66" d="M12.454,1.93A10.812,10.812,0,0,0,1.642,12.548,10.812,10.812,0,0,0,12.454,23.167,10.482,10.482,0,0,0,22.879,12.548,10.545,10.545,0,0,0,19.79,5.076,10.167,10.167,0,0,0,12.454,1.93Zm0,19.665a9.19,9.19,0,0,1-8.881-9.046A8.846,8.846,0,0,1,12.454,3.9a8.516,8.516,0,0,1,8.5,8.652C20.923,17.363,17.181,21.568,12.454,21.594Z" transform="translate(-1.642 -1.929)"/>
    </g>
  </g>
</svg>
